<svg xmlns="http://www.w3.org/2000/svg" viewBox="0 0 1600 1000" fill="none" aria-hidden="true">
  <defs>
    <radialGradient id="glowL1" cx="0" cy="0" r="1" gradientUnits="userSpaceOnUse" gradientTransform="translate(1240 800) rotate(125) scale(340 340)">
      <stop stop-color="#f2b705" stop-opacity="0.18"/>
      <stop offset="1" stop-color="#f2b705" stop-opacity="0"/>
    </radialGradient>
    <radialGradient id="glowL2" cx="0" cy="0" r="1" gradientUnits="userSpaceOnUse" gradientTransform="translate(340 300) rotate(125) scale(260 260)">
      <stop stop-color="#d97706" stop-opacity="0.12"/>
      <stop offset="1" stop-color="#d97706" stop-opacity="0"/>
    </radialGradient>
  </defs>

  <rect width="1600" height="1000" fill="#f4f1e8"/>
  <rect width="1600" height="1000" fill="url(#glowL1)"/>
  <rect width="1600" height="1000" fill="url(#glowL2)"/>

  <g stroke="#2b2a28" stroke-opacity="0.25" stroke-width="1.4">
    <path d="M70 230 L160 170 L250 250 L335 185 L420 280"/>
    <path d="M1160 180 L1260 120 L1370 210 L1465 145 L1540 225"/>
    <path d="M120 780 L220 700 L315 810 L405 740 L500 840"/>
    <path d="M1130 760 L1220 680 L1315 760 L1410 690 L1510 790"/>
  </g>

  <g stroke="#f2b705" stroke-opacity="0.35" stroke-width="1.2">
    <path d="M70 255 L165 200 L255 275 L340 210 L430 300"/>
    <path d="M1170 205 L1268 145 L1368 236 L1460 165 L1540 245"/>
  </g>

  <g fill="#2b2a28" fill-opacity="0.55">
    <circle cx="70" cy="230" r="4"/><circle cx="160" cy="170" r="4"/><circle cx="250" cy="250" r="4"/>
    <circle cx="335" cy="185" r="4"/><circle cx="420" cy="280" r="4"/><circle cx="1160" cy="180" r="4"/>
    <circle cx="1260" cy="120" r="4"/><circle cx="1370" cy="210" r="4"/><circle cx="1465" cy="145" r="4"/>
    <circle cx="1540" cy="225" r="4"/><circle cx="120" cy="780" r="4"/><circle cx="220" cy="700" r="4"/>
    <circle cx="315" cy="810" r="4"/><circle cx="405" cy="740" r="4"/><circle cx="500" cy="840" r="4"/>
  </g>

  <g fill="#f2b705" fill-opacity="0.75">
    <circle cx="165" cy="200" r="3"/><circle cx="255" cy="275" r="3"/><circle cx="340" cy="210" r="3"/>
    <circle cx="430" cy="300" r="3"/><circle cx="1268" cy="145" r="3"/><circle cx="1368" cy="236" r="3"/>
    <circle cx="1460" cy="165" r="3"/><circle cx="1540" cy="245" r="3"/>
  </g>

  <g stroke="#2b2a28" stroke-opacity="0.18" stroke-width="1">
    <path d="M260 520 L315 470 L370 520 L350 590 L280 600 Z"/>
    <path d="M1300 540 L1360 480 L1428 528 L1415 605 L1335 620 Z"/>
    <path d="M190 360 L238 322 L290 356 L280 415 L215 430 Z"/>
    <path d="M1215 350 L1270 312 L1320 350 L1308 412 L1245 428 Z"/>
    <path d="M760 620 L825 570 L890 620 L876 700 L788 708 Z"/>
  </g>

  <g stroke="#f2b705" stroke-opacity="0.45" stroke-width="2" stroke-linecap="round">
    <line x1="1180" y1="110" x2="1300" y2="110"/>
    <line x1="1160" y1="132" x2="1326" y2="132"/>
    <line x1="1200" y1="154" x2="1340" y2="154"/>
  </g>

  <g fill="#2b2a28" fill-opacity="0.2">
    <circle cx="160" cy="370" r="2"/><circle cx="210" cy="390" r="2"/><circle cx="260" cy="420" r="2"/>
    <circle cx="1350" cy="360" r="2"/><circle cx="1410" cy="390" r="2"/><circle cx="1460" cy="420" r="2"/>
    <circle cx="210" cy="610" r="2"/><circle cx="260" cy="640" r="2"/><circle cx="320" cy="660" r="2"/>
    <circle cx="1280" cy="620" r="2"/><circle cx="1335" cy="650" r="2"/><circle cx="1385" cy="680" r="2"/>
    <circle cx="610" cy="250" r="2"/><circle cx="650" cy="280" r="2"/><circle cx="700" cy="320" r="2"/>
    <circle cx="930" cy="300" r="2"/><circle cx="980" cy="335" r="2"/><circle cx="1030" cy="360" r="2"/>
    <circle cx="570" cy="770" r="2"/><circle cx="620" cy="800" r="2"/><circle cx="680" cy="830" r="2"/>
  </g>

  <g fill="#f2b705" fill-opacity="0.55">
    <circle cx="230" cy="448" r="2.5"/><circle cx="1268" cy="444" r="2.5"/><circle cx="830" cy="720" r="2.5"/>
    <circle cx="620" cy="844" r="2.5"/><circle cx="980" cy="730" r="2.5"/><circle cx="348" cy="344" r="2.5"/>
  </g>
</svg>
