<svg xmlns="http://www.w3.org/2000/svg" viewBox="0 0 900 900" fill="none" aria-hidden="true">
  <defs>
    <radialGradient id="neuralGlow" cx="50%" cy="50%" r="50%">
      <stop offset="0%" stop-color="#30f0f0" stop-opacity="0.12"/>
      <stop offset="45%" stop-color="#f0c030" stop-opacity="0.06"/>
      <stop offset="100%" stop-color="#121d28" stop-opacity="0"/>
    </radialGradient>
  </defs>
  <circle cx="450" cy="450" r="420" fill="url(#neuralGlow)"/>
  <g stroke="#30f0f0" stroke-width="0.6" opacity="0.35">
    <path d="M450 120 L620 280 L580 480 L450 580 L320 480 L280 280 Z"/>
    <path d="M450 200 L540 360 L420 440 L360 360 Z"/>
    <line x1="450" y1="120" x2="450" y2="200"/>
    <line x1="620" y1="280" x2="540" y2="360"/>
    <line x1="580" y1="480" x2="420" y2="440"/>
    <line x1="320" y1="480" x2="360" y2="360"/>
    <line x1="280" y1="280" x2="360" y2="360"/>
    <line x1="450" y1="580" x2="420" y2="440"/>
  </g>
  <g fill="#f0c030">
    <circle cx="450" cy="120" r="5" opacity="0.9"/>
    <circle cx="620" cy="280" r="4" opacity="0.85"/>
    <circle cx="580" cy="480" r="4.5" opacity="0.9"/>
    <circle cx="450" cy="580" r="5" opacity="0.85"/>
    <circle cx="320" cy="480" r="4" opacity="0.85"/>
    <circle cx="280" cy="280" r="4.5" opacity="0.9"/>
    <circle cx="450" cy="200" r="3.5" opacity="0.95"/>
    <circle cx="540" cy="360" r="3" opacity="0.8"/>
    <circle cx="420" cy="440" r="3.5" opacity="0.85"/>
    <circle cx="360" cy="360" r="3" opacity="0.8"/>
    <circle cx="450" cy="360" r="2.5" opacity="0.7"/>
  </g>
  <g stroke="#f0c030" stroke-width="0.45" opacity="0.25">
    <line x1="120" y1="200" x2="220" y2="260"/>
    <line x1="780" y1="320" x2="700" y2="400"/>
    <line x1="200" y1="720" x2="320" y2="640"/>
    <line x1="760" y1="640" x2="680" y2="560"/>
  </g>
</svg>
